<svg width="24" height="24" viewBox="0 0 24 24" fill="none" xmlns="http://www.w3.org/2000/svg">
<path d="M8.94504 22.0004C7.28013 22.0133 5.78874 20.9729 5.22604 19.4059C4.66335 17.8389 5.15219 16.0874 6.44504 15.0383C5.52804 14.2961 4.99527 13.1795 4.99527 11.9998C4.99527 10.8201 5.52804 9.70344 6.44504 8.96126C5.15177 7.9125 4.66264 6.16089 5.22544 4.59382C5.78825 3.02676 7.28003 1.98658 8.94504 2.00013H15.055C16.72 1.98658 18.2118 3.02676 18.7746 4.59382C19.3374 6.16089 18.8483 7.9125 17.555 8.96126C18.8479 10.0104 19.3367 11.7619 18.774 13.3289C18.2113 14.8959 16.72 15.9363 15.055 15.9233C14.286 15.9242 13.5335 15.7004 12.89 15.2793V18.0793C12.8807 20.2503 11.116 22.0041 8.94504 22.0004ZM8.92304 15.9243C7.73858 15.943 6.79173 16.915 6.80416 18.0996C6.81658 19.2841 7.7836 20.2361 8.96819 20.23C10.1528 20.2238 11.1099 19.2619 11.11 18.0773V15.9243H8.92204H8.92304ZM15.056 9.84726C13.8684 9.85333 12.91 10.8199 12.914 12.0076C12.9181 13.1952 13.8831 14.1552 15.0707 14.1532C16.2583 14.1512 17.22 13.1879 17.22 12.0003C17.2156 10.8083 16.247 9.84505 15.055 9.84726H15.056ZM8.94604 9.84723C8.17685 9.84316 7.46389 10.2497 7.07574 10.9138C6.68758 11.5779 6.6832 12.3986 7.06424 13.0668C7.44527 13.735 8.15385 14.1492 8.92304 14.1533H11.11V9.84723H8.94604ZM12.89 3.77026V8.07729H15.054C16.2115 8.08266 17.1666 7.17268 17.217 6.01626V6.45126V5.92326C17.2121 4.73274 16.2456 3.77026 15.055 3.77026H12.89ZM8.94404 3.77026C8.17485 3.77026 7.46408 4.18062 7.07949 4.84676C6.69489 5.5129 6.69489 6.33362 7.07949 6.99976C7.46408 7.6659 8.17485 8.07626 8.94404 8.07626H11.11V3.77026H8.94404Z" fill="#EEEEEE"/>
</svg>
