<svg width="24" height="24" viewBox="0 0 24 24" fill="none" xmlns="http://www.w3.org/2000/svg">
<path d="M21.2446 5.99795L23 4.35879V4H16.9188L12.5848 14.5293L7.65408 4H1.27775V4.35879L3.32833 6.76832C3.52817 6.94637 3.63267 7.20674 3.60608 7.46889V16.9379C3.66933 17.2788 3.55567 17.6295 3.31 17.8774L1 20.6099V20.9642H7.54958V20.6054L5.23958 17.8774C4.98933 17.6286 4.87108 17.2842 4.9215 16.9379V8.74747L10.6708 20.9687H11.3391L16.2827 8.74747V18.4831C16.2827 18.7399 16.2827 18.7927 16.1103 18.9609L14.332 20.6403V21H22.9597V20.6412L21.2455 19.0029C21.0952 18.892 21.0173 18.7059 21.0493 18.5252V6.47574C21.0173 6.29411 21.0942 6.108 21.2446 5.99795Z" fill="#EEEEEE"/>
</svg>
