<svg width="255" height="60" viewBox="0 0 255 60" fill="none" xmlns="http://www.w3.org/2000/svg">
<path d="M36.1478 49.6284V39.313H24.9144C21.8595 39.313 19.0297 40.9166 17.4651 43.5348L13.8232 49.6284H36.1478Z" fill="#63D2F9"/>
<path d="M0.394531 10V20.3154H29.9825L36.1475 10H0.394531Z" fill="#4E5EE4"/>
<path d="M14.5551 26.1214L0.427246 49.6281H12.4639L29.3583 21.5056H22.7116C19.3684 21.5056 16.2711 23.2584 14.5551 26.1214Z" fill="#63B0F9"/>
<path d="M61.6543 37.5628C55.6017 37.5628 51.1479 33.1633 51.1479 27.2595C51.1479 21.4125 55.6303 16.9562 61.6828 16.9562C67.7353 16.9562 72.2177 21.4692 72.2177 27.2595C72.2177 33.1066 67.7068 37.5628 61.6543 37.5628ZM61.6828 33.9581C65.5085 33.9581 68.2492 31.1197 68.2492 27.2595C68.2492 23.4561 65.5085 20.5609 61.6828 20.5609C57.8286 20.5609 55.0878 23.4561 55.0878 27.2595C55.0878 31.1197 57.8286 33.9581 61.6828 33.9581ZM76.2707 43.7221V22.264H79.925V24.1657H80.1249C80.5246 23.5412 81.895 21.895 84.6357 21.895C88.8326 21.895 91.7161 25.0172 91.7161 29.6721C91.7161 34.3271 88.8611 37.5628 84.7499 37.5628C82.0948 37.5628 80.6673 36.0869 80.182 35.2637H79.9821V43.7221H76.2707ZM83.922 34.2135C86.3202 34.2135 87.9475 32.3686 87.9475 29.7289C87.9475 27.0041 86.3202 25.2443 83.8934 25.2443C81.4382 25.2443 79.8965 27.2027 79.8965 29.7289C79.8965 32.5105 81.6095 34.2135 83.922 34.2135ZM102.336 37.5628C97.9103 37.5628 94.7698 34.2703 94.7698 29.814C94.7698 25.1023 97.9389 21.895 102.336 21.895C107.16 21.895 109.787 25.4429 109.787 29.6437V30.8075H98.3671C98.4813 33.0782 100.052 34.6109 102.45 34.6109C104.277 34.6109 105.676 33.7594 106.19 32.5389H109.644C108.902 35.576 106.218 37.5628 102.336 37.5628ZM98.4242 28.1962H106.247C106.076 26.1809 104.505 24.8469 102.336 24.8469C100.251 24.8469 98.6526 26.3228 98.4242 28.1962ZM113.783 37.1938V22.264H117.323V24.0805H117.523C118.122 22.9736 119.607 21.895 121.748 21.895C125.117 21.895 127.173 24.2508 127.173 27.4298V37.1938H123.461V28.3949C123.461 26.5783 122.291 25.3578 120.578 25.3578C118.779 25.3578 117.494 26.777 117.494 28.6503V37.1938H113.783ZM130.855 37.1938V33.8162L141.247 20.788V20.5893H131.226V17.3252H145.986V20.6745L135.594 33.7026V33.9297H146.043V37.1938H130.855ZM156.092 37.5628C151.666 37.5628 148.526 34.2703 148.526 29.814C148.526 25.1023 151.695 21.895 156.092 21.895C160.916 21.895 163.543 25.4429 163.543 29.6437V30.8075H152.123C152.237 33.0782 153.808 34.6109 156.206 34.6109C158.033 34.6109 159.432 33.7594 159.946 32.5389H163.4C162.658 35.576 159.974 37.5628 156.092 37.5628ZM152.18 28.1962H160.003C159.832 26.1809 158.261 24.8469 156.092 24.8469C154.007 24.8469 152.409 26.3228 152.18 28.1962ZM167.539 43.7221V22.264H171.193V24.1657H171.393C171.793 23.5412 173.163 21.895 175.904 21.895C180.101 21.895 182.984 25.0172 182.984 29.6721C182.984 34.3271 180.129 37.5628 176.018 37.5628C173.363 37.5628 171.936 36.0869 171.45 35.2637H171.25V43.7221H167.539ZM175.19 34.2135C177.588 34.2135 179.216 32.3686 179.216 29.7289C179.216 27.0041 177.588 25.2443 175.162 25.2443C172.706 25.2443 171.165 27.2027 171.165 29.7289C171.165 32.5105 172.878 34.2135 175.19 34.2135ZM186.98 43.7221V22.264H190.635V24.1657H190.834C191.234 23.5412 192.605 21.895 195.345 21.895C199.542 21.895 202.426 25.0172 202.426 29.6721C202.426 34.3271 199.571 37.5628 195.46 37.5628C192.804 37.5628 191.377 36.0869 190.892 35.2637H190.692V43.7221H186.98ZM194.632 34.2135C197.03 34.2135 198.657 32.3686 198.657 29.7289C198.657 27.0041 197.03 25.2443 194.603 25.2443C192.148 25.2443 190.606 27.2027 190.606 29.7289C190.606 32.5105 192.319 34.2135 194.632 34.2135ZM213.045 37.5628C208.62 37.5628 205.479 34.2703 205.479 29.814C205.479 25.1023 208.648 21.895 213.045 21.895C217.87 21.895 220.497 25.4429 220.497 29.6437V30.8075H209.077C209.191 33.0782 210.761 34.6109 213.159 34.6109C214.986 34.6109 216.385 33.7594 216.899 32.5389H220.354C219.612 35.576 216.928 37.5628 213.045 37.5628ZM209.134 28.1962H216.956C216.785 26.1809 215.215 24.8469 213.045 24.8469C210.961 24.8469 209.362 26.3228 209.134 28.1962ZM228.147 37.1938C225.52 37.1938 224.036 35.6327 224.036 32.993V15.906H227.747V32.6524C227.747 33.5039 228.175 33.9581 228.946 33.9581H229.546V37.1938H228.147ZM234.969 20.2771C233.627 20.2771 232.685 19.454 232.685 18.1199C232.685 16.8427 233.627 15.9912 234.969 15.9912C236.311 15.9912 237.253 16.8427 237.253 18.1199C237.253 19.454 236.311 20.2771 234.969 20.2771ZM233.113 37.1938V22.264H236.825V37.1938H233.113ZM241.335 37.1938V22.264H244.875V24.0805H245.075C245.674 22.9736 247.159 21.895 249.3 21.895C252.669 21.895 254.725 24.2508 254.725 27.4298V37.1938H251.013V28.3949C251.013 26.5783 249.843 25.3578 248.13 25.3578C246.331 25.3578 245.046 26.777 245.046 28.6503V37.1938H241.335Z" fill="#282846"/>
</svg>
