<svg width="85" height="60" viewBox="0 0 85 60" fill="none" xmlns="http://www.w3.org/2000/svg">
<path fill-rule="evenodd" clip-rule="evenodd" d="M40.6484 32.1445C35.912 32.1445 32.0781 28.3029 32.0781 23.5742C32.0781 18.8378 35.912 15.0039 40.6484 15.0039C45.3849 15.0039 49.2187 18.8378 49.2187 23.5742C49.2187 28.3029 45.3849 32.1445 40.6484 32.1445ZM40.6484 10.7148C47.7454 10.7148 53.5078 16.4695 53.5078 23.5742C53.5078 30.6788 47.7531 36.4335 40.6484 36.4335C33.5515 36.4335 27.7891 30.6788 27.7891 23.5742C27.7891 16.4695 33.5515 10.7148 40.6484 10.7148ZM52.8752 37.0584C53.7083 37.8915 53.7083 39.2492 52.8752 40.09L44.3049 48.6603C43.4718 49.4935 42.1141 49.4935 41.2733 48.6603C40.4401 47.8272 40.4401 46.4695 41.2733 45.6287L49.8436 37.0584C50.6844 36.2175 52.0421 36.2175 52.8752 37.0584ZM57.7891 12.8594C57.7891 14.0396 56.8325 15.0039 55.6446 15.0039C54.4643 15.0039 53.5001 14.0473 53.5001 12.8594C53.5001 11.6714 54.4643 10.7148 55.6523 10.7148C56.8325 10.7148 57.7891 11.6714 57.7891 12.8594Z" fill="black"/>
</svg>
