<svg width="53" height="53" viewBox="0 0 53 53" fill="none" xmlns="http://www.w3.org/2000/svg">
<path d="M21.7135 51.3467C19.4673 51.9508 17.0756 51.0835 15.7891 49.1983L1.60807 28.4175C0.321592 26.5324 0.433014 24.0581 1.88406 22.2889L17.8792 2.78648C19.3302 1.01726 21.7908 0.355464 23.9741 1.14721L48.0407 9.87479C50.2239 10.6665 51.6333 12.7317 51.5316 14.9903L50.4104 39.8867C50.3087 42.1452 48.7191 44.0834 46.473 44.6875L21.7135 51.3467Z" fill="url(#paint0_radial)"/>
<path d="M33.0613 17.4408L32.977 17.3234V17.3737L33.0613 17.4408Z" fill="#888888"/>
<path d="M34.9438 20.3863L36.6397 21.2446L35.8766 19.6458H34.6724L33.8414 17.4412L32.2642 16.1622L31.959 15.6405L31.942 14.9001L34.1637 15.2871L31.942 14.0923H21.5121L19.2904 15.2871L21.5121 14.9001L21.4951 15.6405L20.3928 17.4412L19.5787 19.6458H18.3577L17.6115 21.2446L19.2904 20.3863L21.2577 17.3066L21.5969 18.5015L25.2261 19.8478L26.0911 19.0232L25.8536 17.8788L25.6671 17.0373L26.3624 18.6193L26.532 19.9824H27.7022L27.8718 18.6193L28.5671 17.0373L28.1601 19.0232L29.025 19.8478L32.6543 18.5015L32.9765 17.3739V17.3234V17.3066L34.9438 20.3863Z" fill="#DFEEF7"/>
<path d="M29.6699 19.8141V20.7734H30.7383V20.3863H31.7728L32.7395 19.3597L31.7389 19.8141H29.6699Z" fill="white"/>
<path d="M24.5657 20.7734V19.8141H22.4966L21.513 19.3597L22.4627 20.3863H23.5142V20.7734H24.5657Z" fill="white"/>
<path d="M28.2629 30.5174L29.0261 29.4235H25.2272L25.9904 30.5174H28.2629Z" fill="#8495B6"/>
<path d="M30.1796 36.441V32.8228L28.8228 30.8875H27.9918L28.0427 32.9406L26.6351 30.8875H25.414L24.0742 32.8228V36.441L23.3959 33.2098L19.7666 37.8883V41.8936L20.7163 39.1L20.8181 40.9512L23.1245 43.0548L23.1754 44.3338L23.5655 42.4489L22.107 40.8838L22.0561 39.1L23.1754 37.6022L23.0737 40.6651L24.4813 42.0282L23.1245 47.6154L25.1427 43.1221L26.2111 48.4232L28.1105 51.4356L27.3643 48.4232L28.331 42.4994V45.7306L29.1111 43.1221L31.1293 47.6154L29.6199 42.1628L31.1802 40.6651L31.0615 37.6022L32.1977 39.1L32.1299 40.8838L30.6714 42.4489L31.0615 44.3338L31.1293 43.0548L33.4188 40.9512L33.5375 39.1L34.4872 41.8936V37.8883L30.841 33.2098L30.1796 36.441Z" fill="white"/>
<path d="M18.4263 16.3474H19.9527L20.6141 15.7752H18.9521L17.9515 14.513H16.5778L14.6444 18.7876L17.0526 15.5396L18.4263 16.3474Z" fill="white"/>
<path d="M16.3735 19.0905L17.2215 18.0808H18.5782L19.7654 16.9028L17.0519 17.0374L14.3214 19.8815H11.9471L14.3214 20.521L16.3735 19.0905Z" fill="white"/>
<path d="M13.0167 25.031L15.2383 22.1533L17.3921 20.3862L17.8161 18.7875L14.95 20.7396L13.0167 25.031Z" fill="white"/>
<path d="M36.2168 14.4793L35.2162 15.7415H33.5542L34.2156 16.3305H35.725L37.1156 15.5059L39.5238 18.7539L37.5905 14.4793H36.2168Z" fill="white"/>
<path d="M34.4011 16.8691L35.5882 18.0472H36.928L37.776 19.0569L39.828 20.4874L42.2193 19.8479H39.828L37.1145 17.0038L34.4011 16.8691Z" fill="white"/>
<path d="M38.9299 22.1365L41.1346 24.9974L39.2182 20.7061L36.3521 18.7539L36.7591 20.3695L38.9299 22.1365Z" fill="white"/>
<path d="M20.613 13.621L19.765 12.1064H17.6281L15.1521 14.0249L17.8147 12.8469L20.613 13.621Z" fill="white"/>
<path d="M33.0616 13.621L35.8429 12.8469L38.5055 14.0249L36.0295 12.1064H33.8926L33.0616 13.621Z" fill="white"/>
<path d="M39.0997 24.2065L37.7939 23.6007L37.7091 22.3385L37.1325 24.1224L38.3196 25.1153V25.8894L36.1827 24.156L36.8781 25.5528L36.5219 27.6396L35.2161 29.8947L35.9623 27.7238L35.9114 25.3004L33.7067 22.7424L35.233 25.6033L35.1821 27.6396L33.2318 25.1658V24.0719L33.8932 21.6822L33.6728 20.3864H32.6722L29.6026 21.6485L31.926 22.0861L29.6704 21.9514L31.0102 22.9275L29.433 22.877L28.0593 21.1773H26.2107L24.837 22.877L23.2598 22.9275L24.5996 21.9514L22.344 22.0861L24.6674 21.6485L21.6148 20.3864H20.6142L20.3937 21.6822L21.0551 24.0719V25.1658L19.0878 27.6396L19.003 25.6033L20.5294 22.7424L18.3416 25.3004L18.3077 27.7238L19.0539 29.8947L17.7481 27.6396L17.3919 25.5528L18.0872 24.156L15.9504 25.8894V25.1153L17.1375 24.1224L16.5609 22.3385L16.4761 23.6007L15.1702 24.2065L12.4229 28.784L15.1702 26.4279L16.2556 27.8584L16.6457 25.8558V28.3801L17.6463 29.0364L17.8668 30.3154L17.3071 30.6857L15.8995 30.3154L17.3071 31.5608L18.4773 30.8203L18.7826 32.3854L18.0872 33.7317L18.2568 34.6405L19.5288 32.8566L18.2568 35.3305L18.7317 39.1001V36.8787L20.7838 34.1019V29.0701L21.6996 31.9815L22.6154 29.2047L23.1411 30.6352L23.582 28.9523L25.0236 28.0772L23.582 29.8106L25.9054 28.0772L26.5499 28.5989H27.6692L28.3306 28.0772L30.654 29.8106L29.2125 28.0772L30.654 28.9523L31.095 30.6352L31.6207 29.2047L32.5365 31.9815L33.4523 29.0701V34.1019L35.5044 36.8787V39.0833L35.9792 35.3136L34.7073 32.8398L35.9792 34.6236L36.1488 33.7149L35.4535 32.3686L35.7588 30.8035L36.9459 31.5439L38.3535 30.2986L36.9459 30.6688L36.3693 30.2986L36.5898 29.0196L37.5904 28.3633V25.8389L37.9804 27.8416L39.0828 26.4111V26.3775L41.8302 28.7335L39.0828 24.156V24.2065H39.0997ZM29.9587 26.2933H29.1786L29.1447 26.6804L27.3639 27.9257H26.8891L25.1084 26.6804L25.0744 26.2933H24.2943L22.0727 28.3296L23.3955 25.4014L24.0399 25.3172L25.4475 24.1224H26.1938V24.4758H25.668L25.0575 25.0311V26.1587L25.668 26.1923L26.3464 26.714H27.8897L28.568 26.1923L29.1786 26.1587V25.0311L28.568 24.4758H28.0423V24.1224H28.7885L30.1961 25.3172L30.8406 25.4014L32.1634 28.3296L29.9587 26.2933Z" fill="#DFEEF7"/>
<path d="M33.5546 6.45188L33.4189 6.58651V6.56968L33.402 6.60334L30.5867 9.27914L32.1809 8.72378L30.892 10.9284H28.7551L27.8224 7.42796L29.1622 8.31989L26.8388 3.72559L24.3797 8.40403L25.8212 7.42796L24.8884 10.8611H22.7855L21.344 8.37038L23.0229 8.95939L20.0551 6.13213L21.6831 12.7122H31.9096L33.3002 7.05772L33.5546 6.45188Z" fill="#CCCCCC"/>
<path d="M16.5613 22.3384L16.4596 23.6006L15.1537 24.2065L12.4063 28.7839L15.1537 26.4279L16.2561 27.8583L16.6461 25.8557V28.38L17.6467 29.0195L17.8672 30.2985L17.3075 30.6688L15.8999 30.2985L17.3075 31.5439L18.4777 30.8034L18.783 32.3685L18.0877 33.7148L18.2572 34.6236L19.5292 32.8397L18.2572 35.3136L18.7491 39.1001V36.8787L20.8011 34.1019V29.07L21.7169 31.9814L22.6327 29.2047L23.1585 30.6351L23.5994 28.9354L25.0409 28.0771L23.5994 29.8105L25.9059 28.0771L26.5673 28.5988H27.6866L28.331 28.0771L30.6544 29.8105L29.2129 28.0771L30.6544 28.9354L31.0954 30.6351L31.6211 29.2047L32.5369 31.9814L33.4527 29.07V34.1019L35.5048 36.8787V39.1001L35.9796 35.3136L34.7247 32.8397L35.9796 34.6236L36.1662 33.7148L35.4709 32.3685L35.7761 30.8034L36.9463 31.5439L38.3539 30.2985L36.9463 30.6688L36.3867 30.2985L36.5563 29.2383L36.5902 29.0195L37.6077 28.38V25.8557L37.9978 27.8583L39.1001 26.3942L41.8475 28.7503L39.1001 24.2065L37.7773 23.6006L37.6925 22.3384L37.1159 24.1223L38.3031 25.1152V25.9062L36.1662 24.1728L36.8615 25.5528L36.5054 27.6396L35.1995 29.8946L35.9457 27.7237L35.8948 25.3003L33.7071 22.7423L35.2504 25.6033L35.1995 27.6396L33.2323 25.1657L33.8597 27.0842L32.7404 26.2259L33.1814 27.101L32.1638 28.3295L29.9591 26.2932H29.162L29.1451 26.6803L27.3644 27.9257H26.8895L25.1088 26.6803L25.0749 26.2932H24.2947L22.0731 28.3295L20.4959 27.5722L21.0216 25.1657L19.0543 27.6396L19.0035 25.6033L20.5298 22.7423L18.342 25.3003L18.3081 27.7237L19.0543 29.8946L17.7315 27.6396L17.3923 25.5528L18.0877 24.1728L15.9508 25.9062V25.1152L17.121 24.1223L16.5613 22.3384Z" fill="white"/>
<path d="M27.9909 29.4235L27.5499 30.2145H25.7692L25.9897 30.5174H28.2622L29.0254 29.4235H27.9909Z" fill="#D7D7D7"/>
<path d="M23.0229 8.95947L20.0551 6.1322L22.3276 8.70703L23.0229 8.95947Z" fill="white"/>
<path d="M20.92 7.10828L20.6147 7.15877L22.8872 12.7123H21.6831L20.0551 6.1322L20.92 7.10828Z" fill="#919191"/>
<path d="M25.6671 17.0374L26.6168 18.4342L26.7185 19.2083H27.4308V18.5015L28.5671 17.0374L27.8718 18.6193L27.7022 19.9824H26.532L26.3624 18.6193L25.6671 17.0374Z" fill="white"/>
<path d="M24.2935 14.0923L23.3098 16.2969L25.2262 19.8478L21.5969 18.5015L21.2578 17.3066L22.004 16.6503L21.2578 16.9027L22.0718 15.5564L21.5121 14.0923H24.2935Z" fill="white"/>
<path d="M22.0039 16.6503L21.2577 16.9027L22.0717 15.5564L21.5121 14.0923L19.2904 15.2871L21.5121 14.9001L21.4951 15.6405L20.3928 17.4412L19.5787 19.6458H18.3577L17.6115 21.2446L19.2904 20.3863L21.2577 17.3066L22.0039 16.6503Z" fill="white"/>
<path d="M19.4441 17.2055L17.2733 17.3065L14.3224 20.5208L16.3745 19.0903L17.2224 18.0806H18.5792L19.4441 17.2055Z" fill="white"/>
<path d="M23.6498 21.8335L21.7164 21.1603L21.072 21.4969L21.7164 25.031H23.9889L25.3118 24.1222L24.9047 23.2471L23.3615 23.1966L23.2597 22.9442L24.5825 21.9513L22.3269 22.0859L23.6498 21.8335Z" fill="white"/>
<path d="M25.3113 24.1224H25.4639L24.0563 25.3341L23.4119 25.4014L22.0721 28.3296L20.4949 27.5723L21.0206 25.1658V24.0719L20.3592 21.699L20.5797 20.3864H21.5803L24.6499 21.6485L23.6493 21.8336L21.7159 21.1605L21.0715 21.4971L21.7159 25.0312H23.9885L25.3113 24.1224Z" fill="white"/>
<path d="M25.2267 19.8477L26.0916 19.0231L26.0237 18.6697L25.0401 19.6962L25.2267 19.8477Z" fill="white"/>
<path d="M33.5535 6.4519L31.9085 12.7123H31.3658L33.2143 6.77165L33.5535 6.4519Z" fill="white"/>
<path d="M27.6016 7.54578L28.2461 10.3057H27.9238L27.449 7.54578H27.6016Z" fill="white"/>
<path d="M26.6516 4.07899L28.4662 7.84868L29.1615 8.31989L26.8381 3.72559L26.6516 4.07899Z" fill="white"/>
<path d="M23.5316 34.3038L22.9041 34.9096L22.4122 37.2993L22.6836 35.1452L21.4964 39.0159L22.0052 35.8352L21.0725 39.1L22.2935 41.8432L20.8859 39.3525L21.276 37.0806L20.1736 38.9822L19.7666 41.8937V37.8884L23.3959 33.2099L23.6163 34.2533L23.5316 34.3038Z" fill="white"/>
<path d="M24.0733 34.371L25.464 33.4623L26.8037 37.9051L25.6675 42.7855L27.4482 38.3932L26.8037 34.9601L27.8383 34.8254L27.9061 37.131L28.2453 34.8254L29.6699 34.7749L29.0254 40.8502L30.1786 36.441V32.8228L28.8219 30.8875H27.9909L28.0418 32.9406L26.6342 30.8875H25.4131L24.0733 32.8228V34.371Z" fill="white"/>
<path d="M24.566 34.0514L24.2607 38.4606L25.0409 40.783L23.7859 38.6794L23.5315 34.3038L23.6163 34.2533L24.0742 36.4411V34.3711L24.566 34.0514Z" fill="white"/>
<path d="M30.6194 34.3206L33.9774 38.3091L34.4861 41.8937V37.8884L30.8399 33.2099L30.6194 34.3206Z" fill="white"/>
<path d="M23.1914 39.386V40.3621L24.9043 41.8936L23.1236 47.6154L24.4803 42.0282L23.0727 40.665L23.1744 37.6022L23.1914 39.386Z" fill="white"/>
<path d="M24.9053 33.8326V37.6023L25.465 33.4623L24.9053 33.8326Z" fill="white"/>
<path d="M29.6695 34.775L29.89 33.0921L28.7198 31.4765L29.5169 33.1257L28.3976 31.9477L28.1602 33.2099L28.245 34.8255L29.6695 34.775Z" fill="white"/>
<path d="M31.2478 35.0611L29.0262 40.8502L30.1794 36.4411L30.8408 33.2099L31.2478 35.0611Z" fill="white"/>
<path d="M31.0602 37.6022L32.7731 38.7634L32.4678 41.1531L32.366 40.4294L32.0777 41.557L30.9245 42.6172L31.128 43.0547L31.0602 44.3337L30.6701 42.4489L32.1286 40.8838L32.1964 39.0999L31.0602 37.6022Z" fill="white"/>
<path d="M31.0611 37.6024L31.2476 36.8282L31.7225 37.737L31.8751 37.2826L33.2149 38.2587L32.9436 39.1001L32.5535 39.605L32.2822 38.6289L31.0611 37.6024Z" fill="white"/>
<path d="M28.33 42.4995L28.5166 44.0646L29.0253 42.7856L30.6195 45.7812L31.1283 47.6155L29.1101 43.1222L28.33 45.7307V42.4995Z" fill="white"/>
<path d="M25.1414 43.1222L25.7689 44.3339V43.2905L26.6678 43.3073L26.3625 47.6155L28.1093 51.4357L26.2099 48.4233L25.1414 43.1222Z" fill="white"/>
<path d="M25.0404 27.6901L23.4293 28.481L23.1919 29.2888L22.6661 28.8849L22.4966 29.1037L21.886 29.9788L21.7164 31.9815L22.6322 29.2047L23.158 30.6351L23.5989 28.9354L25.0404 28.0771L23.5989 29.8105L25.9054 28.0771L26.5668 28.5988H27.6861L28.3305 28.0771L30.654 29.8105L29.2124 28.0771L30.654 28.9354L31.0949 30.6351L31.6206 29.2047L32.5364 31.9815L32.1633 29.0532L30.0095 27.0338L30.62 27.993L29.6703 27.2357L29.0259 27.505L29.6703 27.5723H27.8557L27.3639 27.9257H26.889L26.0919 27.3703L25.0404 27.6901Z" fill="white"/>
<path d="M16.9164 23.4996L15.1017 25.0311L13.8976 26.9159L15.1865 25.6537L14.7286 26.3774L15.424 26.0576L16.0345 26.9159L16.5094 25.7379L18.0866 24.1728L15.9497 25.9062V25.1152L17.1199 24.1223L16.9164 23.4996Z" fill="white"/>
<path d="M25.1086 26.6803H24.4811L23.5314 27.8415L23.8366 27.1683L23.1922 27.7742L23.3618 28.1444L22.9039 27.9593L22.0729 28.3295L24.2945 26.2932H25.0747L25.1086 26.6803Z" fill="white"/>
<path d="M17.6296 19.528L15.4249 21.0763L13.0167 25.0311L15.2383 22.1533L17.3921 20.3863L17.6296 19.528Z" fill="white"/>
<path d="M16.5773 20.2517L16.1024 20.9585L16.8825 20.3863H17.3913L17.6287 19.528L16.5773 20.2517Z" fill="white"/>
<path d="M20.7839 26.2259L19.2576 28.1107L19.7664 31.6617L19.1389 30.1134H18.3248L17.8161 30.8875H17.1716L15.8997 30.2985L17.3073 30.6687L17.8161 29.9956L17.6465 29.0195L16.6459 28.38L17.2734 26.6635L17.3921 25.5527L17.7313 27.6395L19.0541 29.8946L18.3079 27.7237L18.3418 25.3003L20.5295 22.7423L19.0032 25.6032L19.0541 27.6395L21.0213 25.1657L20.7839 26.2259Z" fill="white"/>
<path d="M20.8002 34.1018L20.4779 30.3826V33.008L20.0031 30.2144L19.8335 33.6811L18.2563 35.3135L18.7481 39.1V36.8786L20.8002 34.1018Z" fill="white"/>
<path d="M18.4769 30.8033L19.4435 32.3348L18.2564 34.6235L18.0868 33.7148L18.7821 32.3684L18.4769 30.8033Z" fill="white"/>
<path d="M36.5387 19.4943L39.2013 21.2445L41.1346 24.9974L38.9299 22.1365L36.7592 20.3694L36.5387 19.4943Z" fill="white"/>
<path d="M34.9788 17.4413H37.0479L39.9818 20.1507L42.2204 19.8478L39.8292 20.4873L37.7771 19.0569L36.9291 18.0471H35.5894L34.9788 17.4413Z" fill="white"/>
<path d="M31.9437 14.0923L31.2144 14.9001L31.5706 16.0949L32.9782 17.3739L34.9454 20.3863L36.6414 21.2446L35.8782 19.6458H34.6741L33.8431 17.4412L32.2659 16.1622L31.9606 15.6405L31.9437 14.9001L34.1653 15.2871L31.9437 14.0923Z" fill="white"/>
<path d="M31.2132 14.9001H29.2968V14.0923H31.9425L31.2132 14.9001Z" fill="white"/>
<path d="M37.7762 23.6006L37.6744 24.1223L39.2007 25.132L41.1341 27.9088L39.2177 26.0072L38.1493 27.1515L37.9966 26.0745L37.2504 25.4855L37.1317 28.1276L35.1984 29.8946L36.5042 27.6396L36.8604 25.5528L36.165 24.1728L38.3019 25.9062V25.1152L37.1147 24.1223L37.6914 22.3384L37.7762 23.6006Z" fill="white"/>
<path d="M36.504 29.6254L34.4011 32.1834L34.7233 32.8397L35.9783 34.6236L36.1648 33.7148L35.4695 32.3685L35.7748 30.8034L36.945 31.5439L38.3526 30.2985L36.945 30.6688L36.3853 30.2985L36.504 29.6254Z" fill="white"/>
<path d="M35.1987 27.6396L34.2151 27.303L35.1987 29.8946L33.7402 27.9761L32.5531 29.9788L32.163 28.3295L33.1806 27.101L32.7396 26.2259L33.859 27.0842L33.2315 25.1657L35.1987 27.6396Z" fill="white"/>
<path d="M32.163 28.3297V29.0533L32.5361 31.9815L32.5531 29.9789L32.163 28.3297Z" fill="white"/>
<path d="M33.452 32.4021L35.8263 36.5252L35.504 39.1V36.8786L33.452 34.1018V32.4021Z" fill="white"/>
<path d="M26.6681 43.3074L26.0575 46.0841L25.7692 43.2905L26.6681 43.3074Z" fill="white"/>
<defs>
<radialGradient id="paint0_radial" cx="0" cy="0" r="1" gradientUnits="userSpaceOnUse" gradientTransform="translate(26.1255 26.1766) rotate(90) scale(25.3602 25.4112)">
<stop stop-color="#0F2441"/>
<stop offset="1" stop-color="#1E4F94"/>
</radialGradient>
</defs>
</svg>
