<svg width="330" height="64" viewBox="0 0 330 64" fill="none" xmlns="http://www.w3.org/2000/svg">
<path d="M78.0332 38.375H75.3806V19.8198H78.0332L89.187 34.2085V19.8198H91.8396V38.375H89.187L78.0332 23.9863V38.375Z" fill="white"/>
<path d="M96.6013 19.8198H110.123V22.4724H99.2538V27.7776H108.531V30.4302H99.2538V35.7224H110.123V38.375H96.6013V19.8198Z" fill="white"/>
<path d="M114.095 38.375V19.8198H124.253C127.255 19.8198 128.756 21.3251 128.756 24.3357V26.9753C128.756 29.9859 127.255 31.4912 124.253 31.4912H116.748V38.375H114.095ZM116.748 28.8386H124.11C124.818 28.8386 125.327 28.6833 125.637 28.3728C125.948 28.0623 126.103 27.5533 126.103 26.8459V24.4651C126.103 23.7577 125.948 23.2488 125.637 22.9382C125.327 22.6277 124.818 22.4724 124.11 22.4724H116.748V28.8386Z" fill="white"/>
<path d="M130.878 19.8198H145.719V22.4724H139.625V38.375H136.972V22.4724H130.878V19.8198Z" fill="white"/>
<path d="M148.902 19.8198H151.555V35.7224H162.152V19.8198H164.805V35.7224C164.805 36.0847 164.736 36.4298 164.598 36.7576C164.46 37.0767 164.27 37.3571 164.029 37.5986C163.787 37.8402 163.502 38.0299 163.175 38.168C162.855 38.306 162.515 38.375 162.152 38.375H151.555C151.193 38.375 150.848 38.306 150.52 38.168C150.201 38.0299 149.92 37.8402 149.679 37.5986C149.437 37.3571 149.247 37.0767 149.109 36.7576C148.971 36.4298 148.902 36.0847 148.902 35.7224V19.8198Z" fill="white"/>
<path d="M172.232 38.375H169.58V19.8198H172.232L183.386 34.2085V19.8198H186.039V38.375H183.386L172.232 23.9863V38.375Z" fill="white"/>
<path d="M190.8 19.8198H204.322V22.4724H193.453V27.7776H202.73V30.4302H193.453V35.7224H204.322V38.375H190.8V19.8198Z" fill="white"/>
<path d="M225.814 38.375L218.892 24.7756V38.375H216.239V19.8198H219.138L226.203 33.7944L233.28 19.8198H236.166V38.375H233.526V24.7756L226.604 38.375H225.814Z" fill="white"/>
<path d="M240.953 19.8198H243.606V35.7224H254.203V19.8198H256.856V35.7224C256.856 36.0847 256.787 36.4298 256.649 36.7576C256.511 37.0767 256.321 37.3571 256.08 37.5986C255.838 37.8402 255.553 38.0299 255.226 38.168C254.906 38.306 254.566 38.375 254.203 38.375H243.606C243.244 38.375 242.899 38.306 242.571 38.168C242.252 38.0299 241.971 37.8402 241.73 37.5986C241.488 37.3571 241.299 37.0767 241.16 36.7576C241.022 36.4298 240.953 36.0847 240.953 35.7224V19.8198Z" fill="white"/>
<path d="M260.039 19.8198H274.881V22.4724H268.786V38.375H266.134V22.4724H260.039V19.8198Z" fill="white"/>
<path d="M278.064 19.8198H280.716V35.7224H291.314V19.8198H293.966V35.7224C293.966 36.0847 293.897 36.4298 293.759 36.7576C293.621 37.0767 293.431 37.3571 293.19 37.5986C292.948 37.8402 292.664 38.0299 292.336 38.168C292.017 38.306 291.676 38.375 291.314 38.375H280.716C280.354 38.375 280.009 38.306 279.681 38.168C279.362 38.0299 279.082 37.8402 278.84 37.5986C278.599 37.3571 278.409 37.0767 278.271 36.7576C278.133 36.4298 278.064 36.0847 278.064 35.7224V19.8198Z" fill="white"/>
<path d="M306.957 19.8198L314.113 38.375H311.46L309.817 34.105H301.445L299.802 38.375H297.149L304.305 19.8198H306.957ZM302.455 31.4524H308.795L305.638 23.2747L302.455 31.4524Z" fill="white"/>
<path d="M319.949 19.8198V35.7224H329.485V38.375H317.296V19.8198H319.949Z" fill="white"/>
<g clip-path="url(#clip0)">
<path d="M26.5958 62.8921C23.8446 63.6321 20.9151 62.5697 19.3393 60.2606L1.96966 34.8073C0.393923 32.4982 0.530399 29.4677 2.30771 27.3006L21.8993 3.41305C23.6767 1.24602 26.6905 0.435415 29.3647 1.40519L58.8427 12.0952C61.5169 13.0649 63.2431 15.5945 63.1185 18.3609L61.7453 48.8552C61.6207 51.6216 59.6737 53.9956 56.9225 54.7355L26.5958 62.8921Z" fill="url(#paint0_radial)"/>
<path d="M40.4955 21.3629L40.3918 21.2186V21.2805L40.4955 21.3629Z" fill="#888888"/>
<path d="M42.8008 24.9702L44.8781 26.0214L43.9433 24.0632H42.4685L41.4506 21.3629L39.5188 19.7963L39.1449 19.1573L39.1241 18.2503L41.8453 18.7244L39.1241 17.2609H26.349L23.6278 18.7244L26.349 18.2503L26.3282 19.1573L24.978 21.3629L23.9809 24.0632H22.4853L21.5713 26.0214L23.6278 24.9702L26.0374 21.198L26.4528 22.6615L30.8982 24.3105L31.9576 23.3005L31.6667 21.8988L31.4382 20.8682L32.2899 22.8058L32.4976 24.4755H33.931L34.1387 22.8058L34.9904 20.8682L34.4918 23.3005L35.5512 24.3105L39.9965 22.6615L40.3912 21.2804V21.2186V21.198L42.8008 24.9702Z" fill="#DFEEF7"/>
<path d="M36.3411 24.2694V25.4443H37.6497V24.9702H38.9168L40.1009 23.7128L38.8753 24.2694H36.3411Z" fill="white"/>
<path d="M30.0894 25.4443V24.2694H27.5551L26.3503 23.7128L27.5136 24.9702H28.8015V25.4443H30.0894Z" fill="white"/>
<path d="M34.6179 37.3793L35.5527 36.0394H30.8997L31.8344 37.3793H34.6179Z" fill="#8495B6"/>
<path d="M36.9655 44.6349V40.2031L35.3037 37.8326H34.2859L34.3482 40.3474L32.6241 37.8326H31.1284L29.4874 40.2031V44.6349L28.6565 40.6772L24.2112 46.4076V51.3135L25.3744 47.8917L25.4991 50.1591L28.3241 52.7358L28.3865 54.3023L28.8642 51.9937L27.0778 50.0767L27.0155 47.8917L28.3865 46.0572L28.2618 49.8087L29.9859 51.4784L28.3241 58.3219L30.7961 52.8182L32.1048 59.3113L34.4313 63.001L33.5173 59.3113L34.7013 52.0555V56.0132L35.6569 52.8182L38.1288 58.3219L36.28 51.6433L38.1911 49.8087L38.0457 46.0572L39.4375 47.8917L39.3544 50.0767L37.5679 51.9937L38.0457 54.3023L38.1288 52.7358L40.9331 50.1591L41.0785 47.8917L42.2418 51.3135V46.4076L37.7757 40.6772L36.9655 44.6349Z" fill="white"/>
<path d="M22.5695 20.0231H24.4391L25.2492 19.3222H23.2135L21.9879 17.7762H20.3053L17.9373 23.0119L20.887 19.0336L22.5695 20.0231Z" fill="white"/>
<path d="M20.0552 23.3831L21.0938 22.1463H22.7556L24.2097 20.7034L20.8861 20.8683L17.5417 24.3519H14.6335L17.5417 25.1352L20.0552 23.3831Z" fill="white"/>
<path d="M15.9434 30.6593L18.6646 27.1345L21.3027 24.9701L21.822 23.0119L18.3114 25.403L15.9434 30.6593Z" fill="white"/>
<path d="M44.3602 17.735L43.1346 19.281H41.0989L41.909 20.0024H43.7578L45.4611 18.9924L48.4108 22.9707L46.0427 17.735H44.3602Z" fill="white"/>
<path d="M42.1362 20.6622L43.5903 22.1051H45.2313L46.27 23.3419L48.7834 25.094L51.7124 24.3107H48.7834L45.4598 20.8271L42.1362 20.6622Z" fill="white"/>
<path d="M47.6833 27.114L50.3837 30.6182L48.0364 25.3619L44.5259 22.9708L45.0244 24.9496L47.6833 27.114Z" fill="white"/>
<path d="M25.2478 16.6837L24.2092 14.8285H21.5919L18.5591 17.1784L21.8204 15.7355L25.2478 16.6837Z" fill="white"/>
<path d="M40.4956 16.6837L43.9023 15.7355L47.1636 17.1784L44.1308 14.8285H41.5135L40.4956 16.6837Z" fill="white"/>
<path d="M47.8913 29.6494L46.2918 28.9074L46.1879 27.3614L45.4817 29.5464L46.9357 30.7625V31.7107L44.3184 29.5876L45.1701 31.2985L44.7338 33.8545L43.1344 36.6166L44.0484 33.9575L43.986 30.9893L41.2856 27.8561L43.1551 31.3603L43.0928 33.8545L40.704 30.8244V29.4845L41.5141 26.5575L41.2441 24.9703H40.0185L36.2587 26.5162L39.1045 27.0522L36.3417 26.8873L37.9828 28.0828L36.0509 28.021L34.3684 25.9391H32.1041L30.4216 28.021L28.4897 28.0828L30.1308 26.8873L27.368 27.0522L30.2138 26.5162L26.4748 24.9703H25.2492L24.9792 26.5575L25.7893 29.4845V30.8244L23.3797 33.8545L23.2758 31.3603L25.1453 27.8561L22.4657 30.9893L22.4241 33.9575L23.3381 36.6166L21.7386 33.8545L21.3024 31.2985L22.1541 29.5876L19.5368 31.7107V30.7625L20.9908 29.5464L20.2846 27.3614L20.1807 28.9074L18.5812 29.6494L15.2161 35.2561L18.5812 32.3703L19.9107 34.1224L20.3884 31.6695V34.7614L21.614 35.5653L21.8841 37.1319L21.1986 37.5854L19.4744 37.1319L21.1986 38.6573L22.6319 37.7503L23.0058 39.6673L22.1541 41.3164L22.3618 42.4295L23.9198 40.2445L22.3618 43.2746L22.9435 47.8919V45.171L25.4569 41.7698V35.6066L26.5786 39.1726L27.7004 35.7715L28.3443 37.5236L28.8844 35.4623L30.6501 34.3904L28.8844 36.5135L31.7302 34.3904L32.5196 35.0294H33.8906L34.7007 34.3904L37.5466 36.5135L35.7809 34.3904L37.5466 35.4623L38.0866 37.5236L38.7306 35.7715L39.8523 39.1726L40.974 35.6066V41.7698L43.4875 45.171V47.8713L44.0691 43.254L42.5112 40.2239L44.0691 42.4088L44.2769 41.2957L43.4252 39.6467L43.7991 37.7297L45.2532 38.6367L46.9773 37.1113L45.2532 37.5648L44.5469 37.1113L44.8169 35.5447L46.0425 34.7408V31.6489L46.5203 34.1018L47.8705 32.3497V32.3085L51.2357 35.1943L47.8705 29.5876V29.6494H47.8913ZM36.6949 32.2054H35.7393L35.6978 32.6795L33.5167 34.2049H32.935L30.7539 32.6795L30.7124 32.2054H29.7568L27.0356 34.6996L28.6559 31.1129L29.4453 31.0099L31.1694 29.5464H32.0834V29.9792H31.4394L30.6916 30.6595V32.0405L31.4394 32.0817L32.2703 32.7207H34.1606L34.9915 32.0817L35.7393 32.0405V30.6595L34.9915 29.9792H34.3476V29.5464H35.2616L36.9857 31.0099L37.775 31.1129L39.3953 34.6996L36.6949 32.2054Z" fill="#DFEEF7"/>
<path d="M41.0994 7.90265L40.9332 8.06756V8.04695L40.9124 8.08817L37.4642 11.3656L39.4168 10.6854L37.8381 13.3857H35.2208L34.0783 9.09821L35.7193 10.1907L32.8735 4.56335L29.8615 10.2938L31.6271 9.09821L30.4846 13.3033H27.9088L26.1432 10.2525L28.1996 10.974L24.5645 7.51101L26.5586 15.5707H39.0845L40.7878 8.64472L41.0994 7.90265Z" fill="#CCCCCC"/>
<path d="M20.2853 27.3613L20.1607 28.9072L18.5612 29.6493L15.196 35.256L18.5612 32.3702L19.9114 34.1223L20.3892 31.6694V34.7613L21.6148 35.5446L21.8848 37.1112L21.1993 37.5647L19.4752 37.1112L21.1993 38.6366L22.6326 37.7296L23.0065 39.6466L22.1548 41.2956L22.3626 42.4087L23.9205 40.2238L22.3626 43.2539L22.965 47.8918V45.1709L25.4784 41.7697V35.6065L26.6002 39.1725L27.7219 35.7714L28.3658 37.5235L28.9059 35.4416L30.6716 34.3903L28.9059 36.5134L31.731 34.3903L32.5411 35.0293H33.9121L34.7015 34.3903L37.5473 36.5134L35.7816 34.3903L37.5473 35.4416L38.0874 37.5235L38.7313 35.7714L39.853 39.1725L40.9748 35.6065V41.7697L43.4882 45.1709V47.8918L44.0699 43.2539L42.5327 40.2238L44.0699 42.4087L44.2984 41.2956L43.4467 39.6466L43.8206 37.7296L45.2539 38.6366L46.978 37.1112L45.2539 37.5647L44.5684 37.1112L44.7761 35.8126L44.8177 35.5446L46.064 34.7613V31.6694L46.5418 34.1223L47.892 32.329L51.2572 35.2148L47.892 29.6493L46.2718 28.9072L46.1679 27.3613L45.4616 29.5462L46.9157 30.7624V31.7312L44.2984 29.6081L45.15 31.2983L44.7138 33.8544L43.1143 36.6165L44.0283 33.9574L43.966 30.9891L41.2864 27.856L43.1767 31.3602L43.1143 33.8544L40.7047 30.8242L41.4733 33.1741L40.1023 32.1229L40.6424 33.1947L39.3961 34.6995L36.6956 32.2053H35.7193L35.6985 32.6794L33.5174 34.2048H32.9358L30.7547 32.6794L30.7131 32.2053H29.7576L27.0364 34.6995L25.1045 33.7719L25.7485 30.8242L23.3389 33.8544L23.2766 31.3602L25.1461 27.856L22.4664 30.9891L22.4249 33.9574L23.3389 36.6165L21.7186 33.8544L21.3032 31.2983L22.1548 29.6081L19.5375 31.7312V30.7624L20.9708 29.5462L20.2853 27.3613Z" fill="white"/>
<path d="M34.2847 36.0394L33.7446 37.0082H31.5635L31.8335 37.3793H34.617L35.5518 36.0394H34.2847Z" fill="#D7D7D7"/>
<path d="M28.1997 10.9741L24.5645 7.51111L27.348 10.6649L28.1997 10.9741Z" fill="white"/>
<path d="M25.6239 8.70666L25.2499 8.7685L28.0335 15.5708H26.5586L24.5645 7.51111L25.6239 8.70666Z" fill="#919191"/>
<path d="M31.4382 20.8682L32.6015 22.5791L32.7261 23.5273H33.5986V22.6616L34.9903 20.8682L34.1387 22.8058L33.9309 24.4755H32.4976L32.2899 22.8058L31.4382 20.8682Z" fill="white"/>
<path d="M29.7559 17.2609L28.5511 19.9612L30.8984 24.3106L26.453 22.6615L26.0376 21.198L26.9516 20.3941L26.0376 20.7033L27.0347 19.0543L26.3492 17.2609H29.7559Z" fill="white"/>
<path d="M26.9514 20.3941L26.0374 20.7033L27.0345 19.0543L26.349 17.2609L23.6278 18.7244L26.349 18.2503L26.3282 19.1573L24.978 21.3629L23.9809 24.0632H22.4853L21.5713 26.0214L23.6278 24.9702L26.0374 21.198L26.9514 20.3941Z" fill="white"/>
<path d="M23.8163 21.0742L21.1574 21.1979L17.543 25.135L20.0564 23.3829L21.0951 22.1461H22.7569L23.8163 21.0742Z" fill="white"/>
<path d="M28.9675 26.7429L26.5994 25.9183L25.8101 26.3306L26.5994 30.6593H29.3829L31.0032 29.5462L30.5046 28.4743L28.6143 28.4125L28.4897 28.1033L30.11 26.8871L27.3472 27.052L28.9675 26.7429Z" fill="white"/>
<path d="M31.0026 29.5464H31.1895L29.4654 31.0305L28.6761 31.113L27.035 34.6996L25.1032 33.772L25.7471 30.8244V29.4845L24.937 26.5781L25.2071 24.9703H26.4326L30.1925 26.5163L28.9669 26.743L26.5988 25.9185L25.8095 26.3307L26.5988 30.6595H29.3823L31.0026 29.5464Z" fill="white"/>
<path d="M30.8989 24.3105L31.9583 23.3005L31.8752 22.8676L30.6704 24.125L30.8989 24.3105Z" fill="white"/>
<path d="M41.0981 7.90265L39.0832 15.5707H38.4185L40.6827 8.2943L41.0981 7.90265Z" fill="white"/>
<path d="M33.808 9.24249L34.5974 12.623H34.2027L33.6211 9.24249H33.808Z" fill="white"/>
<path d="M32.6443 4.99623L34.867 9.61353L35.7186 10.1907L32.8728 4.56335L32.6443 4.99623Z" fill="white"/>
<path d="M28.8227 42.0171L28.0541 42.7592L27.4517 45.6862L27.7841 43.0477L26.33 47.7887L26.9532 43.8929L25.8107 47.8918L27.3063 51.2517L25.5822 48.201L26.0599 45.4182L24.7097 47.7475L24.2112 51.3135V46.4077L28.6565 40.6772L28.9265 41.9553L28.8227 42.0171Z" fill="white"/>
<path d="M29.4863 42.0995L31.1897 40.9864L32.8307 46.4282L31.4389 52.4059L33.6201 47.026L32.8307 42.8209L34.0978 42.656L34.1809 45.48L34.5964 42.656L36.3413 42.5942L35.5519 50.0354L36.9645 44.6349V40.2031L35.3027 37.8326H34.2848L34.3471 40.3474L32.623 37.8326H31.1274L29.4863 40.2031V42.0995Z" fill="white"/>
<path d="M30.0896 41.7079L29.7157 47.1085L30.6713 49.9531L29.1341 47.3765L28.8225 42.0171L28.9264 41.9553L29.4872 44.635V42.0996L30.0896 41.7079Z" fill="white"/>
<path d="M37.5044 42.0377L41.6174 46.923L42.2405 51.3135V46.4077L37.7744 40.6772L37.5044 42.0377Z" fill="white"/>
<path d="M28.4062 48.242V49.4376L30.5042 51.3134L28.3231 58.3218L29.9849 51.4783L28.2607 49.8086L28.3854 46.0571L28.4062 48.242Z" fill="white"/>
<path d="M30.5054 41.4399V46.0572L31.1909 40.9865L30.5054 41.4399Z" fill="white"/>
<path d="M36.3407 42.5942L36.6108 40.5329L35.1774 38.5541L36.1538 40.5741L34.7828 39.1312L34.4919 40.6772L34.5958 42.6561L36.3407 42.5942Z" fill="white"/>
<path d="M38.2739 42.9447L35.5527 50.0355L36.9653 44.6349L37.7754 40.6772L38.2739 42.9447Z" fill="white"/>
<path d="M38.0442 46.0571L40.1422 47.4794L39.7683 50.4064L39.6437 49.52L39.2905 50.9011L37.878 52.1997L38.1273 52.7357L38.0442 54.3022L37.5664 51.9936L39.3528 50.0766L39.4359 47.8916L38.0442 46.0571Z" fill="white"/>
<path d="M38.0452 46.0573L38.2737 45.1091L38.8553 46.2222L39.0423 45.6657L40.6833 46.8612L40.3509 47.8919L39.8732 48.5102L39.5408 47.3147L38.0452 46.0573Z" fill="white"/>
<path d="M34.7002 52.0557L34.9287 53.9727L35.5519 52.4061L37.5045 56.0752L38.1276 58.322L35.6557 52.8183L34.7002 56.0134V52.0557Z" fill="white"/>
<path d="M30.7947 52.8182L31.5633 54.3024V53.0244L32.6642 53.045L32.2903 58.3219L34.4299 63.0011L32.1034 59.3113L30.7947 52.8182Z" fill="white"/>
<path d="M30.6708 33.9163L28.6974 34.8851L28.4066 35.8745L27.7626 35.3798L27.5549 35.6478L26.8071 36.7196L26.5994 39.1726L27.7211 35.7714L28.365 37.5235L28.9051 35.4416L30.6708 34.3904L28.9051 36.5135L31.7302 34.3904L32.5403 35.0294H33.9113L34.7007 34.3904L37.5465 36.5135L35.7808 34.3904L37.5465 35.4416L38.0866 37.5235L38.7305 35.7714L39.8523 39.1726L39.3953 35.5859L36.7571 33.1124L37.505 34.2873L36.3417 33.3597L35.5523 33.6895L36.3417 33.772H34.119L33.5166 34.2049H32.935L31.9587 33.5246L30.6708 33.9163Z" fill="white"/>
<path d="M20.72 28.7836L18.4973 30.6593L17.0225 32.968L18.6012 31.422L18.0403 32.3084L18.892 31.9167L19.6398 32.968L20.2214 31.5251L22.1533 29.6081L19.5359 31.7312V30.7624L20.9692 29.5462L20.72 28.7836Z" fill="white"/>
<path d="M30.7544 32.6794H29.9858L28.8226 34.1017L29.1965 33.2771L28.4071 34.0192L28.6149 34.4727L28.054 34.2459L27.0361 34.6994L29.7573 32.2053H30.7129L30.7544 32.6794Z" fill="white"/>
<path d="M21.5935 23.9189L18.8931 25.8153L15.9434 30.6593L18.6646 27.1345L21.3027 24.9701L21.5935 23.9189Z" fill="white"/>
<path d="M20.3048 24.8052L19.7231 25.671L20.6787 24.9702H21.3019L21.5927 23.9189L20.3048 24.8052Z" fill="white"/>
<path d="M25.4571 32.1228L23.5876 34.4315L24.2107 38.7808L23.4422 36.8844H22.4451L21.8219 37.8326H21.0325L19.4746 37.1112L21.1987 37.5647L21.8219 36.7401L21.6142 35.5446L20.3886 34.7613L21.1572 32.6588L21.3026 31.2983L21.718 33.8543L23.3383 36.6165L22.4243 33.9574L22.4659 30.9891L25.1455 27.856L23.276 31.3602L23.3383 33.8543L25.7479 30.8242L25.4571 32.1228Z" fill="white"/>
<path d="M25.4772 41.7698L25.0825 37.2143V40.4299L24.5009 37.0082L24.2932 41.2545L22.3613 43.2539L22.9637 47.8918V45.1709L25.4772 41.7698Z" fill="white"/>
<path d="M22.6313 37.7296L23.8154 39.6053L22.3613 42.4087L22.1536 41.2956L23.0052 39.6466L22.6313 37.7296Z" fill="white"/>
<path d="M44.7544 23.8776L48.0157 26.0214L50.3837 30.6181L47.6833 27.1139L45.0244 24.9495L44.7544 23.8776Z" fill="white"/>
<path d="M42.8438 21.363H45.378L48.9717 24.6817L51.7136 24.3107L48.7847 25.094L46.2712 23.3419L45.2326 22.1051H43.5916L42.8438 21.363Z" fill="white"/>
<path d="M39.1264 17.2609L38.2332 18.2503L38.6694 19.7139L40.3935 21.2804L42.8031 24.9702L44.8804 26.0214L43.9456 24.0632H42.4708L41.4529 21.3629L39.5211 19.7963L39.1471 19.1573L39.1264 18.2503L41.8476 18.7244L39.1264 17.2609Z" fill="white"/>
<path d="M38.2316 18.2503H35.8843V17.2609H39.1248L38.2316 18.2503Z" fill="white"/>
<path d="M46.2702 28.9072L46.1456 29.5462L48.0151 30.783L50.3831 34.1842L48.0359 31.8549L46.7272 33.2566L46.5402 31.9373L45.6263 31.2159L45.4809 34.4521L43.1128 36.6165L44.7123 33.8544L45.1485 31.2983L44.2968 29.6081L46.9141 31.7312V30.7624L45.4601 29.5462L46.1663 27.3613L46.2702 28.9072Z" fill="white"/>
<path d="M44.712 36.2867L42.1362 39.4199L42.5309 40.2238L44.0681 42.4087L44.2966 41.2956L43.4449 39.6466L43.8188 37.7296L45.2521 38.6366L46.9762 37.1112L45.2521 37.5647L44.5666 37.1112L44.712 36.2867Z" fill="white"/>
<path d="M43.1133 33.8544L41.9085 33.4422L43.1133 36.6166L41.3269 34.2667L39.8728 36.7196L39.395 34.6996L40.6414 33.1948L40.1013 32.123L41.4723 33.1742L40.7037 30.8243L43.1133 33.8544Z" fill="white"/>
<path d="M39.395 34.6996V35.586L39.852 39.1726L39.8728 36.7197L39.395 34.6996Z" fill="white"/>
<path d="M40.9736 39.6877L43.8818 44.7379L43.4871 47.8917V45.1708L40.9736 41.7697V39.6877Z" fill="white"/>
<path d="M32.6644 53.045L31.9166 56.4462L31.5635 53.0244L32.6644 53.045Z" fill="white"/>
</g>
<defs>
<radialGradient id="paint0_radial" cx="0" cy="0" r="1" gradientUnits="userSpaceOnUse" gradientTransform="translate(31.9999 32.0625) rotate(90) scale(31.0625 31.1249)">
<stop stop-color="#0F2441"/>
<stop offset="1" stop-color="#1E4F94"/>
</radialGradient>
<clipPath id="clip0">
<rect width="63.9998" height="64" fill="white"/>
</clipPath>
</defs>
</svg>
