<svg width="154" height="154" viewBox="0 0 154 154" fill="none" xmlns="http://www.w3.org/2000/svg">
<g filter="url(#filter0_d)">
<circle cx="77" cy="73" r="46" fill="#F43F5E"/>
</g>
<path d="M86.8688 81.7839V65.4039C86.8688 63.8662 85.7683 62.465 84.2452 62.3109C82.495 62.1344 81.0187 63.5121 81.0187 65.2356V88.0156C81.0187 88.225 80.7307 88.2803 80.6523 88.0862L79.2684 84.6215C78.7393 83.298 77.256 82.6403 75.926 83.138C74.63 83.6227 73.9346 85.038 74.3362 86.3674L76.6495 94.0027C78.4548 99.9627 84.2405 103.776 90.4009 103.063C96.998 102.298 101.927 96.6027 101.765 89.9309L101.54 80.7709C101.508 79.4086 100.399 78.3227 99.0433 78.3227C97.6642 78.3227 96.5461 79.4462 96.5461 80.8321V83.2944" stroke="white" stroke-width="2" stroke-linecap="round"/>
<path d="M96.5455 83.2946L96.3418 78.1558C96.3125 76.7934 95.3045 75.7075 94.0741 75.7075C92.8202 75.7075 91.8052 76.831 91.8052 78.2169V81.8558" stroke="white" stroke-width="2" stroke-linecap="round"/>
<path d="M91.8054 81.4494L91.5947 76.3105C91.5642 74.9482 90.5269 73.8623 89.2579 73.8623C87.9677 73.8623 86.9199 74.9858 86.9199 76.3717V80.0105" stroke="white" stroke-width="2" stroke-linecap="round"/>
<path d="M71.3492 84.0275H56.7396C55.549 84.0275 54.5854 83.0581 54.5854 81.8628V47.9287C54.5854 46.7334 55.549 45.7651 56.7396 45.7651H90.507C91.6965 45.7651 92.6612 46.7334 92.6612 47.9287V70.604" stroke="white" stroke-width="2" stroke-linecap="round"/>
<path d="M64.7957 54.6475C64.7957 55.7234 63.9287 56.5875 62.87 56.5875C61.8113 56.5875 60.9443 55.7234 60.9443 54.6475C60.9443 53.5717 61.8113 52.7075 62.87 52.7075C63.9287 52.7075 64.7957 53.5717 64.7957 54.6475Z" stroke="white" stroke-width="2"/>
<path d="M75.3323 54.6475C75.3323 55.7234 74.4653 56.5875 73.4066 56.5875C72.3479 56.5875 71.481 55.7234 71.481 54.6475C71.481 53.5717 72.3479 52.7075 73.4066 52.7075C74.4653 52.7075 75.3323 53.5717 75.3323 54.6475Z" stroke="white" stroke-width="2"/>
<path d="M85.8687 54.6475C85.8687 55.7234 85.0018 56.5875 83.943 56.5875C82.8848 56.5875 82.0186 55.7239 82.0186 54.6475C82.0186 53.5711 82.8848 52.7075 83.943 52.7075C85.0018 52.7075 85.8687 53.5717 85.8687 54.6475Z" stroke="white" stroke-width="2"/>
<path d="M64.7957 65.2357C64.7957 66.3115 63.9287 67.1757 62.87 67.1757C61.8113 67.1757 60.9443 66.3115 60.9443 65.2357C60.9443 64.1598 61.8113 63.2957 62.87 63.2957C63.9287 63.2957 64.7957 64.1598 64.7957 65.2357Z" stroke="white" stroke-width="2"/>
<path d="M75.3323 65.2357C75.3323 66.3115 74.4653 67.1757 73.4066 67.1757C72.3479 67.1757 71.481 66.3115 71.481 65.2357C71.481 64.1598 72.3479 63.2957 73.4066 63.2957C74.4653 63.2957 75.3323 64.1598 75.3323 65.2357Z" stroke="white" stroke-width="2"/>
<path d="M64.7957 75.8233C64.7957 76.8992 63.9287 77.7633 62.87 77.7633C61.8113 77.7633 60.9443 76.8992 60.9443 75.8233C60.9443 74.7474 61.8113 73.8833 62.87 73.8833C63.9287 73.8833 64.7957 74.7474 64.7957 75.8233Z" stroke="white" stroke-width="2"/>
<path d="M75.3323 75.8233C75.3323 76.8992 74.4653 77.7633 73.4066 77.7633C72.3479 77.7633 71.481 76.8992 71.481 75.8233C71.481 74.7474 72.3479 73.8833 73.4066 73.8833C74.4653 73.8833 75.3323 74.7474 75.3323 75.8233Z" stroke="white" stroke-width="2"/>
<defs>
<filter id="filter0_d" x="0" y="0" width="154" height="154" filterUnits="userSpaceOnUse" color-interpolation-filters="sRGB">
<feFlood flood-opacity="0" result="BackgroundImageFix"/>
<feColorMatrix in="SourceAlpha" type="matrix" values="0 0 0 0 0 0 0 0 0 0 0 0 0 0 0 0 0 0 127 0"/>
<feOffset dy="4"/>
<feGaussianBlur stdDeviation="15.5"/>
<feColorMatrix type="matrix" values="0 0 0 0 0.898039 0 0 0 0 0.243137 0 0 0 0 0.203922 0 0 0 0.44 0"/>
<feBlend mode="normal" in2="BackgroundImageFix" result="effect1_dropShadow"/>
<feBlend mode="normal" in="SourceGraphic" in2="effect1_dropShadow" result="shape"/>
</filter>
</defs>
</svg>
