<svg width="154" height="154" viewBox="0 0 154 154" fill="none" xmlns="http://www.w3.org/2000/svg">
<g filter="url(#filter0_d)">
<circle cx="77" cy="73" r="46" fill="#0D9488"/>
</g>
<path d="M88 92.3059H93.387" stroke="white" stroke-width="2" stroke-linecap="round" stroke-linejoin="round"/>
<path d="M51.5273 71.6453H60.8353V72.9046V89.5048H51.5273" stroke="white" stroke-width="2" stroke-linecap="round" stroke-linejoin="round"/>
<path d="M62.7398 87.129H60.8354" stroke="white" stroke-width="2" stroke-linecap="round" stroke-linejoin="round"/>
<path d="M60.8354 73.5814H64.1157C64.1157 71.4053 65.8738 69.6411 68.0424 69.6411H75.1298C77.578 69.6411 78.8921 70.0487 79.7002 71.0838" stroke="white" stroke-width="2" stroke-linecap="round" stroke-linejoin="round"/>
<path d="M80.6627 95.0865L80.5433 94.9568C81.2432 95.7155 81.1954 96.9001 80.4393 97.601C79.6832 98.3019 78.5026 98.2554 77.8041 97.4967L77.5259 97.1935" stroke="white" stroke-width="2" stroke-linecap="round" stroke-linejoin="round"/>
<path d="M79.9904 87.4954L84.5495 92.4496C85.3492 93.3197 85.2354 94.7314 84.2951 95.6029C83.3549 96.4745 81.9439 96.4759 81.1414 95.6072L79.9707 94.3351" stroke="white" stroke-width="2" stroke-linecap="round" stroke-linejoin="round"/>
<path d="M81.2132 81.9688L87.9789 89.319C88.8052 90.2173 88.7139 91.6516 87.7723 92.5231C86.832 93.3961 85.3999 93.3735 84.5736 92.4752L77.4692 84.7582" stroke="white" stroke-width="2" stroke-linecap="round" stroke-linejoin="round"/>
<path d="M85.7338 79.9236L91.184 85.8453C91.9738 86.7041 91.853 88.1073 90.9127 88.9788C89.9711 89.8504 88.5685 89.8603 87.7773 89.0014L81.2295 81.9882" stroke="white" stroke-width="2" stroke-linecap="round" stroke-linejoin="round"/>
<path d="M102.695 75.551H93.3867V76.8104V93.4105H102.695" stroke="white" stroke-width="2" stroke-linecap="round" stroke-linejoin="round"/>
<path d="M93.3871 76.6665H90.1054C90.1054 73.5823 87.6165 71.0847 84.5428 71.0847H77.4975C76.9536 71.0847 76.4322 71.3005 76.0472 71.6869L68.316 79.4461C68.2078 79.5533 68.2078 79.7268 68.316 79.8339C70.1852 81.711 73.2153 81.711 75.0859 79.8339L78.9564 75.9501L79.8052 77.2645C80.796 78.8016 82.7116 79.4532 84.4304 78.8355L86.4781 78.1022" stroke="white" stroke-width="2" stroke-linecap="round" stroke-linejoin="round"/>
<path fill-rule="evenodd" clip-rule="evenodd" d="M63.5473 90.484L62.8109 89.8578C62.0379 89.1992 61.9424 88.0372 62.5987 87.2601L64.7166 84.7555C65.3729 83.9799 66.531 83.884 67.304 84.5426L68.0404 85.1701C68.8148 85.8287 68.9089 86.9908 68.2526 87.7664L66.1347 90.271C65.4798 91.0467 64.3203 91.1426 63.5473 90.484Z" stroke="white" stroke-width="2" stroke-linecap="round" stroke-linejoin="round"/>
<path fill-rule="evenodd" clip-rule="evenodd" d="M67.0835 93.4946L66.347 92.8684C65.5741 92.2098 65.4785 91.0478 66.1348 90.2707L69.9772 85.7269C70.6335 84.9512 71.7916 84.8567 72.5645 85.5153L73.301 86.1415C74.0739 86.8001 74.1695 87.9621 73.5132 88.7378L69.6708 93.283C69.0145 94.0572 67.8564 94.1531 67.0835 93.4946Z" stroke="white" stroke-width="2" stroke-linecap="round" stroke-linejoin="round"/>
<path fill-rule="evenodd" clip-rule="evenodd" d="M70.6196 96.5051L69.8832 95.879C69.1102 95.2204 69.0146 94.0583 69.6709 93.2827L74.1809 87.9491C74.8372 87.1735 75.9953 87.0776 76.7682 87.7362L77.5047 88.3637C78.2776 89.0209 78.3718 90.1844 77.7155 90.9586L73.2069 96.2936C72.5506 97.0678 71.3926 97.1637 70.6196 96.5051Z" stroke="white" stroke-width="2" stroke-linecap="round" stroke-linejoin="round"/>
<path fill-rule="evenodd" clip-rule="evenodd" d="M73.7998 99.2125L73.1856 98.6907C72.5405 98.1407 72.4618 97.1733 73.0085 96.526L76.7033 92.157C77.25 91.5111 78.2156 91.4307 78.8592 91.9793L79.4734 92.5025C80.1185 93.0511 80.1972 94.0199 79.6505 94.6658L75.9557 99.0348C75.409 99.6821 74.4435 99.7611 73.7998 99.2125Z" stroke="white" stroke-width="2" stroke-linecap="round" stroke-linejoin="round"/>
<path fill-rule="evenodd" clip-rule="evenodd" d="M80.3829 49.5953C80.3829 51.8404 78.6542 53.6611 76.5208 53.6611C74.3888 53.6611 72.6602 51.8404 72.6602 49.5953C72.6602 47.3502 74.3888 45.5295 76.5208 45.5295C78.6542 45.5295 80.3829 47.3502 80.3829 49.5953Z" stroke="white" stroke-width="2" stroke-linecap="round" stroke-linejoin="round"/>
<path d="M80.962 67.5893V61.4377" stroke="white" stroke-width="2" stroke-linecap="round" stroke-linejoin="round"/>
<path d="M78.2861 55.6973V55.9018C78.2861 56.2571 78.5756 56.5477 78.9298 56.5477H81.4244C82.6457 56.5477 83.6365 57.5419 83.6365 58.7674V67.59" stroke="white" stroke-width="2" stroke-linecap="round" stroke-linejoin="round"/>
<path d="M72.2183 66.1508V61.4377" stroke="white" stroke-width="2" stroke-linecap="round" stroke-linejoin="round"/>
<path d="M74.8933 55.6973V55.9018C74.8933 56.2571 74.6038 56.5477 74.2497 56.5477H71.7551C70.5324 56.5477 69.543 57.5419 69.543 58.7674V66.1205" stroke="white" stroke-width="2" stroke-linecap="round" stroke-linejoin="round"/>
<path fill-rule="evenodd" clip-rule="evenodd" d="M66.1282 53.9211C66.1282 55.8771 64.623 57.4608 62.765 57.4608C60.9099 57.4608 59.4033 55.8771 59.4033 53.9211C59.4033 51.9665 60.9099 50.3813 62.765 50.3813C64.623 50.3813 66.1282 51.9665 66.1282 53.9211Z" stroke="white" stroke-width="2" stroke-linecap="round" stroke-linejoin="round"/>
<path d="M66.6314 66.2734V64.3611" stroke="white" stroke-width="2" stroke-linecap="round" stroke-linejoin="round"/>
<path d="M64.3027 59.3625V59.5402C64.3027 59.8505 64.5543 60.1029 64.8635 60.1029H67.5169" stroke="white" stroke-width="2" stroke-linecap="round" stroke-linejoin="round"/>
<path d="M59.0196 68.1396V64.3601" stroke="white" stroke-width="2" stroke-linecap="round" stroke-linejoin="round"/>
<path d="M61.3489 59.3625V59.5402C61.3489 59.8505 61.0974 60.1029 60.7882 60.1029H58.6168C57.5529 60.1029 56.6914 60.9688 56.6914 62.0364V68.171" stroke="white" stroke-width="2" stroke-linecap="round" stroke-linejoin="round"/>
<path fill-rule="evenodd" clip-rule="evenodd" d="M86.9102 53.9211C86.9102 55.8771 88.4153 57.4608 90.2719 57.4608C92.1284 57.4608 93.6336 55.8771 93.6336 53.9211C93.6336 51.9665 92.1284 50.3813 90.2719 50.3813C88.4153 50.3813 86.9102 51.9665 86.9102 53.9211Z" stroke="white" stroke-width="2" stroke-linecap="round" stroke-linejoin="round"/>
<path d="M86.4068 67.7421V64.3604" stroke="white" stroke-width="2" stroke-linecap="round" stroke-linejoin="round"/>
<path d="M88.7356 59.3625V59.5402C88.7356 59.8505 88.4841 60.1029 88.1749 60.1029H85.5215" stroke="white" stroke-width="2" stroke-linecap="round" stroke-linejoin="round"/>
<path d="M94.0181 72.1215V64.3608" stroke="white" stroke-width="2" stroke-linecap="round" stroke-linejoin="round"/>
<path d="M91.6895 59.3625V59.5402C91.6895 59.8505 91.941 60.1029 92.2502 60.1029H94.4216C95.4854 60.1029 96.347 60.9688 96.347 62.0364V72.1211" stroke="white" stroke-width="2" stroke-linecap="round" stroke-linejoin="round"/>
<defs>
<filter id="filter0_d" x="0" y="0" width="154" height="154" filterUnits="userSpaceOnUse" color-interpolation-filters="sRGB">
<feFlood flood-opacity="0" result="BackgroundImageFix"/>
<feColorMatrix in="SourceAlpha" type="matrix" values="0 0 0 0 0 0 0 0 0 0 0 0 0 0 0 0 0 0 127 0"/>
<feOffset dy="4"/>
<feGaussianBlur stdDeviation="15.5"/>
<feColorMatrix type="matrix" values="0 0 0 0 0.533333 0 0 0 0 0.533333 0 0 0 0 0.533333 0 0 0 0.44 0"/>
<feBlend mode="normal" in2="BackgroundImageFix" result="effect1_dropShadow"/>
<feBlend mode="normal" in="SourceGraphic" in2="effect1_dropShadow" result="shape"/>
</filter>
</defs>
</svg>
