<svg width="154" height="154" viewBox="0 0 154 154" fill="none" xmlns="http://www.w3.org/2000/svg">
<g filter="url(#filter0_d)">
<circle cx="77" cy="73" r="46" fill="#F43F5E"/>
</g>
<path d="M58.047 88.9155C54.729 84.6925 52.75 79.3695 52.75 73.5835C52.75 59.8685 63.868 48.7495 77.584 48.7495C83.459 48.7495 88.858 50.7905 93.11 54.2015" stroke="white" stroke-width="2" stroke-linecap="round"/>
<path d="M95.9346 62.7061L96.9126 58.1001L101.516 59.0771" stroke="white" stroke-width="2" stroke-linecap="round"/>
<path d="M59.0971 84.4604L58.1201 89.0665L53.5161 88.0905" stroke="white" stroke-width="2" stroke-linecap="round"/>
<path d="M96.9854 58.2515C100.303 62.4735 102.282 67.7975 102.282 73.5835C102.282 87.2985 91.1644 98.4165 77.4484 98.4165C71.5734 98.4165 66.1744 96.3765 61.9224 92.9655" stroke="white" stroke-width="2" stroke-linecap="round"/>
<path d="M82.1175 68.1373C82.1175 65.2773 80.0445 63.7888 77.4045 63.7888C74.7645 63.7888 72.6255 65.2773 72.6255 68.1373C72.6255 70.9973 74.2155 71.5921 77.4045 73.3178C80.5875 75.0403 82.1805 75.6351 82.1805 78.4951C82.1805 81.3518 80.0445 82.8078 77.4045 82.8078C74.7645 82.8078 72.6255 81.3518 72.6255 78.4951" stroke="white" stroke-width="2" stroke-linecap="round" stroke-linejoin="round"/>
<path d="M77.4038 61.2184V63.4837" stroke="white" stroke-width="2" stroke-linecap="round" stroke-linejoin="round"/>
<path d="M77.4038 83.1146V85.3766" stroke="white" stroke-width="2" stroke-linecap="round" stroke-linejoin="round"/>
<defs>
<filter id="filter0_d" x="0" y="0" width="154" height="154" filterUnits="userSpaceOnUse" color-interpolation-filters="sRGB">
<feFlood flood-opacity="0" result="BackgroundImageFix"/>
<feColorMatrix in="SourceAlpha" type="matrix" values="0 0 0 0 0 0 0 0 0 0 0 0 0 0 0 0 0 0 127 0"/>
<feOffset dy="4"/>
<feGaussianBlur stdDeviation="15.5"/>
<feColorMatrix type="matrix" values="0 0 0 0 0.898039 0 0 0 0 0.243137 0 0 0 0 0.203922 0 0 0 0.44 0"/>
<feBlend mode="normal" in2="BackgroundImageFix" result="effect1_dropShadow"/>
<feBlend mode="normal" in="SourceGraphic" in2="effect1_dropShadow" result="shape"/>
</filter>
</defs>
</svg>
